<svg width="88" height="110" viewBox="0 0 88 110" fill="none" xmlns="http://www.w3.org/2000/svg">
<g clip-path="url(#clip0_382_3710)">
<path d="M21.9 10.5068V51.0068C17 45.6068 14 38.5068 14 30.7068C14 22.9068 17 15.8068 21.9 10.5068Z" fill="white"/>
<path d="M25.1 14.9072L42.4 49.6072H25.1V14.9072Z" fill="white"/>
<path d="M44 45.7066L27 11.8066H61L44 45.7066Z" fill="white"/>
<path d="M44 0.707031C51.8 0.707031 58.9 3.70703 64.2 8.60703H23.8C29.1 3.70703 36.2 0.707031 44 0.707031Z" fill="white"/>
<path d="M62.9 49.6072H45.6L62.9 14.9072V49.6072Z" fill="white"/>
<path d="M64.2 52.8066C58.9 57.7066 51.8 60.7066 44 60.7066C36.2 60.7066 29.1 57.7066 23.8 52.8066H64.2Z" fill="white"/>
<path d="M66.1 50.9068V10.5068C71 15.8068 74 22.9068 74 30.7068C74 38.5068 71 45.6068 66.1 50.9068Z" fill="white"/>
<path d="M25.1 14.9062L42.4 49.6063H25.1V14.9062Z" fill="white"/>
<path d="M44 45.7066L27 11.8066H61L44 45.7066Z" fill="white"/>
<path d="M45.6 49.6063L62.9 14.9062V49.6063H45.6Z" fill="white"/>
<path d="M27 11.8066H61L44 45.7066L27 11.8066Z" fill="white"/>
</g>
<path d="M21.4933 74.475V85.707H18.7573V78.971L16.2453 85.707H14.0373L11.5093 78.955V85.707H8.77325V74.475H12.0052L15.1573 82.251L18.2773 74.475H21.4933ZM22.9168 81.227C22.9168 80.3097 23.0874 79.5044 23.4288 78.811C23.7808 78.1177 24.2554 77.5844 24.8528 77.211C25.4501 76.8377 26.1168 76.651 26.8528 76.651C27.4821 76.651 28.0314 76.779 28.5008 77.035C28.9808 77.291 29.3488 77.627 29.6048 78.043V76.779H32.3408V85.707H29.6048V84.443C29.3381 84.859 28.9648 85.195 28.4848 85.451C28.0154 85.707 27.4661 85.835 26.8368 85.835C26.1114 85.835 25.4501 85.6484 24.8528 85.275C24.2554 84.891 23.7808 84.3524 23.4288 83.659C23.0874 82.955 22.9168 82.1444 22.9168 81.227ZM29.6048 81.243C29.6048 80.5604 29.4128 80.0217 29.0288 79.627C28.6554 79.2324 28.1968 79.035 27.6528 79.035C27.1088 79.035 26.6448 79.2324 26.2608 79.627C25.8874 80.011 25.7008 80.5444 25.7008 81.227C25.7008 81.9097 25.8874 82.4537 26.2608 82.859C26.6448 83.2537 27.1088 83.451 27.6528 83.451C28.1968 83.451 28.6554 83.2537 29.0288 82.859C29.4128 82.4644 29.6048 81.9257 29.6048 81.243ZM39.2961 83.387V85.707H37.9041C36.9121 85.707 36.1388 85.467 35.5841 84.987C35.0295 84.4964 34.7521 83.7017 34.7521 82.603V79.051H33.6641V76.779H34.7521V74.603H37.4881V76.779H39.2801V79.051H37.4881V82.635C37.4881 82.9017 37.5521 83.0937 37.6801 83.211C37.8081 83.3284 38.0215 83.387 38.3201 83.387H39.2961ZM49.2361 81.099C49.2361 81.355 49.2201 81.6217 49.1881 81.899H42.9961C43.0388 82.4537 43.2148 82.8804 43.5241 83.179C43.8441 83.467 44.2335 83.611 44.6921 83.611C45.3748 83.611 45.8495 83.323 46.1161 82.747H49.0281C48.8788 83.3337 48.6068 83.8617 48.2121 84.331C47.8281 84.8004 47.3428 85.1684 46.7561 85.435C46.1695 85.7017 45.5135 85.835 44.7881 85.835C43.9135 85.835 43.1348 85.6484 42.4521 85.275C41.7695 84.9017 41.2361 84.3684 40.8521 83.675C40.4681 82.9817 40.2761 82.171 40.2761 81.243C40.2761 80.315 40.4628 79.5044 40.8361 78.811C41.2201 78.1177 41.7535 77.5844 42.4361 77.211C43.1188 76.8377 43.9028 76.651 44.7881 76.651C45.6521 76.651 46.4201 76.8324 47.0921 77.195C47.7641 77.5577 48.2868 78.075 48.6601 78.747C49.0441 79.419 49.2361 80.203 49.2361 81.099ZM46.4361 80.379C46.4361 79.9097 46.2761 79.5364 45.9561 79.259C45.6361 78.9817 45.2361 78.843 44.7561 78.843C44.2975 78.843 43.9081 78.9764 43.5881 79.243C43.2788 79.5097 43.0868 79.8884 43.0121 80.379H46.4361ZM53.4155 78.267C53.7355 77.7764 54.1355 77.3924 54.6155 77.115C55.0955 76.827 55.6288 76.683 56.2155 76.683V79.579H55.4635C54.7808 79.579 54.2688 79.7284 53.9275 80.027C53.5862 80.315 53.4155 80.827 53.4155 81.563V85.707H50.6795V76.779H53.4155V78.267ZM58.8993 75.851C58.4193 75.851 58.0246 75.7124 57.7153 75.435C57.4166 75.147 57.2673 74.795 57.2673 74.379C57.2673 73.9524 57.4166 73.6004 57.7153 73.323C58.0246 73.035 58.4193 72.891 58.8993 72.891C59.3686 72.891 59.7526 73.035 60.0513 73.323C60.3606 73.6004 60.5153 73.9524 60.5153 74.379C60.5153 74.795 60.3606 75.147 60.0513 75.435C59.7526 75.7124 59.3686 75.851 58.8993 75.851ZM60.2593 76.779V85.707H57.5233V76.779H60.2593ZM61.698 81.227C61.698 80.3097 61.8687 79.5044 62.21 78.811C62.562 78.1177 63.0367 77.5844 63.634 77.211C64.2313 76.8377 64.898 76.651 65.634 76.651C66.2633 76.651 66.8127 76.779 67.282 77.035C67.762 77.291 68.13 77.627 68.386 78.043V76.779H71.122V85.707H68.386V84.443C68.1193 84.859 67.746 85.195 67.266 85.451C66.7967 85.707 66.2473 85.835 65.618 85.835C64.8927 85.835 64.2313 85.6484 63.634 85.275C63.0367 84.891 62.562 84.3524 62.21 83.659C61.8687 82.955 61.698 82.1444 61.698 81.227ZM68.386 81.243C68.386 80.5604 68.194 80.0217 67.81 79.627C67.4367 79.2324 66.978 79.035 66.434 79.035C65.89 79.035 65.426 79.2324 65.042 79.627C64.6687 80.011 64.482 80.5444 64.482 81.227C64.482 81.9097 64.6687 82.4537 65.042 82.859C65.426 83.2537 65.89 83.451 66.434 83.451C66.978 83.451 67.4367 83.2537 67.81 82.859C68.194 82.4644 68.386 81.9257 68.386 81.243ZM75.8374 73.867V85.707H73.1014V73.867H75.8374ZM16.448 100.227C16.448 99.3097 16.6187 98.5044 16.96 97.811C17.312 97.1177 17.7867 96.5844 18.384 96.211C18.9813 95.8377 19.648 95.651 20.384 95.651C20.9707 95.651 21.504 95.7737 21.984 96.019C22.4747 96.2644 22.8587 96.595 23.136 97.011V92.867H25.872V104.707H23.136V103.427C22.88 103.854 22.512 104.195 22.032 104.451C21.5627 104.707 21.0133 104.835 20.384 104.835C19.648 104.835 18.9813 104.648 18.384 104.275C17.7867 103.891 17.312 103.352 16.96 102.659C16.6187 101.955 16.448 101.144 16.448 100.227ZM23.136 100.243C23.136 99.5604 22.944 99.0217 22.56 98.627C22.1867 98.2324 21.728 98.035 21.184 98.035C20.64 98.035 20.176 98.2324 19.792 98.627C19.4187 99.011 19.232 99.5444 19.232 100.227C19.232 100.91 19.4187 101.454 19.792 101.859C20.176 102.254 20.64 102.451 21.184 102.451C21.728 102.451 22.1867 102.254 22.56 101.859C22.944 101.464 23.136 100.926 23.136 100.243ZM36.2674 100.099C36.2674 100.355 36.2514 100.622 36.2194 100.899H30.0274C30.07 101.454 30.246 101.88 30.5554 102.179C30.8754 102.467 31.2647 102.611 31.7234 102.611C32.406 102.611 32.8807 102.323 33.1474 101.747H36.0594C35.91 102.334 35.638 102.862 35.2434 103.331C34.8594 103.8 34.374 104.168 33.7874 104.435C33.2007 104.702 32.5447 104.835 31.8194 104.835C30.9447 104.835 30.166 104.648 29.4834 104.275C28.8007 103.902 28.2674 103.368 27.8834 102.675C27.4994 101.982 27.3074 101.171 27.3074 100.243C27.3074 99.315 27.494 98.5044 27.8674 97.811C28.2514 97.1177 28.7847 96.5844 29.4674 96.211C30.15 95.8377 30.934 95.651 31.8194 95.651C32.6834 95.651 33.4514 95.8324 34.1234 96.195C34.7954 96.5577 35.318 97.075 35.6914 97.747C36.0754 98.419 36.2674 99.203 36.2674 100.099ZM33.4674 99.379C33.4674 98.9097 33.3074 98.5364 32.9874 98.259C32.6674 97.9817 32.2674 97.843 31.7874 97.843C31.3287 97.843 30.9394 97.9764 30.6194 98.243C30.31 98.5097 30.118 98.8884 30.0434 99.379H33.4674ZM41.3428 104.835C40.5641 104.835 39.8708 104.702 39.2628 104.435C38.6548 104.168 38.1748 103.806 37.8228 103.347C37.4708 102.878 37.2734 102.355 37.2308 101.779H39.9348C39.9668 102.088 40.1108 102.339 40.3668 102.531C40.6228 102.723 40.9374 102.819 41.3108 102.819C41.6521 102.819 41.9134 102.755 42.0948 102.627C42.2868 102.488 42.3828 102.312 42.3828 102.099C42.3828 101.843 42.2494 101.656 41.9828 101.539C41.7161 101.411 41.2841 101.272 40.6868 101.123C40.0468 100.974 39.5134 100.819 39.0868 100.659C38.6601 100.488 38.2921 100.227 37.9828 99.875C37.6734 99.5124 37.5188 99.027 37.5188 98.419C37.5188 97.907 37.6574 97.443 37.9348 97.027C38.2228 96.6004 38.6388 96.2644 39.1828 96.019C39.7374 95.7737 40.3934 95.651 41.1508 95.651C42.2708 95.651 43.1508 95.9284 43.7908 96.483C44.4414 97.0377 44.8148 97.7737 44.9108 98.691H42.3828C42.3401 98.3817 42.2014 98.1364 41.9668 97.955C41.7428 97.7737 41.4441 97.683 41.0708 97.683C40.7508 97.683 40.5054 97.747 40.3348 97.875C40.1641 97.9924 40.0788 98.1577 40.0788 98.371C40.0788 98.627 40.2121 98.819 40.4788 98.947C40.7561 99.075 41.1828 99.203 41.7588 99.331C42.4201 99.5017 42.9588 99.6724 43.3748 99.843C43.7908 100.003 44.1534 100.27 44.4628 100.643C44.7828 101.006 44.9481 101.496 44.9588 102.115C44.9588 102.638 44.8094 103.107 44.5108 103.523C44.2228 103.928 43.8014 104.248 43.2468 104.483C42.7028 104.718 42.0681 104.835 41.3428 104.835ZM48.0086 94.851C47.5286 94.851 47.134 94.7124 46.8246 94.435C46.526 94.147 46.3766 93.795 46.3766 93.379C46.3766 92.9524 46.526 92.6004 46.8246 92.323C47.134 92.035 47.5286 91.891 48.0086 91.891C48.478 91.891 48.862 92.035 49.1606 92.323C49.47 92.6004 49.6246 92.9524 49.6246 93.379C49.6246 93.795 49.47 94.147 49.1606 94.435C48.862 94.7124 48.478 94.851 48.0086 94.851ZM49.3686 95.779V104.707H46.6326V95.779H49.3686ZM54.7434 95.651C55.3727 95.651 55.922 95.779 56.3914 96.035C56.8714 96.291 57.2394 96.627 57.4954 97.043V95.779H60.2314V104.691C60.2314 105.512 60.066 106.254 59.7354 106.915C59.4154 107.587 58.9194 108.12 58.2474 108.515C57.586 108.91 56.7594 109.107 55.7674 109.107C54.4447 109.107 53.3727 108.792 52.5514 108.163C51.73 107.544 51.2607 106.702 51.1434 105.635H53.8474C53.9327 105.976 54.1354 106.243 54.4554 106.435C54.7754 106.638 55.17 106.739 55.6394 106.739C56.2047 106.739 56.6527 106.574 56.9834 106.243C57.3247 105.923 57.4954 105.406 57.4954 104.691V103.427C57.2287 103.843 56.8607 104.184 56.3914 104.451C55.922 104.707 55.3727 104.835 54.7434 104.835C54.0074 104.835 53.3407 104.648 52.7434 104.275C52.146 103.891 51.6714 103.352 51.3194 102.659C50.978 101.955 50.8074 101.144 50.8074 100.227C50.8074 99.3097 50.978 98.5044 51.3194 97.811C51.6714 97.1177 52.146 96.5844 52.7434 96.211C53.3407 95.8377 54.0074 95.651 54.7434 95.651ZM57.4954 100.243C57.4954 99.5604 57.3034 99.0217 56.9194 98.627C56.546 98.2324 56.0874 98.035 55.5434 98.035C54.9994 98.035 54.5354 98.2324 54.1514 98.627C53.778 99.011 53.5914 99.5444 53.5914 100.227C53.5914 100.91 53.778 101.454 54.1514 101.859C54.5354 102.254 54.9994 102.451 55.5434 102.451C56.0874 102.451 56.546 102.254 56.9194 101.859C57.3034 101.464 57.4954 100.926 57.4954 100.243ZM67.6508 95.683C68.6961 95.683 69.5281 96.0244 70.1468 96.707C70.7761 97.379 71.0908 98.307 71.0908 99.491V104.707H68.3708V99.859C68.3708 99.2617 68.2161 98.7977 67.9068 98.467C67.5974 98.1364 67.1814 97.971 66.6588 97.971C66.1361 97.971 65.7201 98.1364 65.4108 98.467C65.1014 98.7977 64.9468 99.2617 64.9468 99.859V104.707H62.2108V95.779H64.9468V96.963C65.2241 96.5684 65.5974 96.259 66.0668 96.035C66.5361 95.8004 67.0641 95.683 67.6508 95.683Z" fill="white"/>
<defs>
<clipPath id="clip0_382_3710">
<rect width="60" height="60" fill="white" transform="translate(14 0.707031)"/>
</clipPath>
</defs>
</svg>
