<svg width="88" height="101" viewBox="0 0 88 101" fill="none" xmlns="http://www.w3.org/2000/svg">
<path fill-rule="evenodd" clip-rule="evenodd" d="M74.6942 27.4709L69.0124 35.4154L63.3306 27.4709H66.4285C66.1924 21.5681 61.3163 16.8459 55.3567 16.8459C50.3278 16.8459 46.063 20.2209 44.7155 24.8181C43.0763 24.2904 41.3814 23.957 39.6588 23.8043C39.8533 23.0681 40.1034 22.332 40.409 21.6237C41.2286 19.6931 42.3955 17.957 43.882 16.4709C45.3684 14.9848 47.1049 13.8043 49.0359 12.9987C51.0363 12.1376 53.1618 11.707 55.3567 11.707C57.5516 11.707 59.6771 12.1376 61.6775 12.9848C63.6085 13.8043 65.345 14.9709 66.8314 16.457C68.3178 17.9431 69.4848 19.6793 70.3044 21.6098C71.0962 23.4709 71.5269 25.4431 71.5685 27.4709H74.6942Z" fill="white"/>
<path fill-rule="evenodd" clip-rule="evenodd" d="M66.748 71.7069V68.2903H47.1605C47.2994 68.2208 47.4383 68.1653 47.5772 68.0958C49.7027 67.0819 51.6614 65.7625 53.4118 64.1514C53.648 63.9291 53.8702 63.7208 54.0786 63.5125C54.3148 63.2764 54.5648 63.0264 54.801 62.7625C55.0788 62.4569 55.3567 62.1375 55.6067 61.818H66.748V58.4014L76.0556 65.0541L66.748 71.7069Z" fill="white"/>
<path fill-rule="evenodd" clip-rule="evenodd" d="M59.5242 47.0263C59.5242 49.9846 58.9408 52.8596 57.8016 55.5679C56.8292 57.8735 55.4678 59.9846 53.773 61.8318C53.5507 62.0679 53.3284 62.304 53.1062 62.5401C52.8978 62.7485 52.6894 62.9429 52.481 63.1513C50.8418 64.6651 49.008 65.9013 47.0076 66.8596C46.7298 66.9985 46.438 67.1235 46.1463 67.2485C46.1324 67.2485 46.1324 67.2624 46.1185 67.2624C44.4515 67.9707 42.6594 68.3179 40.8396 68.3179H11.9445V61.8596H38.7697C46.8826 61.8596 53.5368 55.3735 53.6479 47.2624C53.6479 47.1929 53.6479 47.1235 53.6479 47.054C53.6479 38.1929 46.4519 30.9985 37.5889 30.9985C28.7259 30.9707 21.5299 38.1513 21.5299 47.0263H25.2529L18.5987 56.3318L11.9445 47.0263H15.6675C15.6675 44.0679 16.2509 41.1929 17.3901 38.4846C18.5014 35.8735 20.0712 33.5263 22.0855 31.5124C24.0999 29.4985 26.4476 27.9151 29.0593 26.8179C31.7682 25.679 34.6438 25.0957 37.6028 25.0957C38.2001 25.0957 38.7836 25.1235 39.3671 25.1651C41.0897 25.304 42.7706 25.6374 44.4098 26.179C44.9933 26.3735 45.5629 26.5818 46.1324 26.8318C48.7441 27.9429 51.0918 29.5124 53.1062 31.5263C55.1205 33.5401 56.7042 35.8874 57.8016 38.4985C58.9408 41.1929 59.5242 44.0679 59.5242 47.0263Z" fill="white"/>
<path d="M21.556 96.819C20.7347 96.819 19.9987 96.6857 19.348 96.419C18.6973 96.1524 18.1747 95.7577 17.78 95.235C17.396 94.7124 17.1933 94.083 17.172 93.347H20.084C20.1267 93.763 20.2707 94.083 20.516 94.307C20.7613 94.5204 21.0813 94.627 21.476 94.627C21.8813 94.627 22.2013 94.5364 22.436 94.355C22.6707 94.163 22.788 93.9017 22.788 93.571C22.788 93.2937 22.692 93.0644 22.5 92.883C22.3187 92.7017 22.0893 92.5524 21.812 92.435C21.5453 92.3177 21.1613 92.1844 20.66 92.035C19.9347 91.811 19.3427 91.587 18.884 91.363C18.4253 91.139 18.0307 90.8084 17.7 90.371C17.3693 89.9337 17.204 89.363 17.204 88.659C17.204 87.6137 17.5827 86.7977 18.34 86.211C19.0973 85.6137 20.084 85.315 21.3 85.315C22.5373 85.315 23.5347 85.6137 24.292 86.211C25.0493 86.7977 25.4547 87.619 25.508 88.675H22.548C22.5267 88.3124 22.3933 88.0297 22.148 87.827C21.9027 87.6137 21.588 87.507 21.204 87.507C20.8733 87.507 20.6067 87.5977 20.404 87.779C20.2013 87.9497 20.1 88.2004 20.1 88.531C20.1 88.8937 20.2707 89.1764 20.612 89.379C20.9533 89.5817 21.4867 89.8004 22.212 90.035C22.9373 90.2804 23.524 90.515 23.972 90.739C24.4307 90.963 24.8253 91.2884 25.156 91.715C25.4867 92.1417 25.652 92.691 25.652 93.363C25.652 94.003 25.4867 94.5844 25.156 95.107C24.836 95.6297 24.3667 96.0457 23.748 96.355C23.1293 96.6644 22.3987 96.819 21.556 96.819ZM26.7918 92.243C26.7918 91.315 26.9784 90.5044 27.3518 89.811C27.7358 89.1177 28.2638 88.5844 28.9358 88.211C29.6184 87.8377 30.3971 87.651 31.2718 87.651C32.3918 87.651 33.3251 87.9444 34.0718 88.531C34.8291 89.1177 35.3251 89.9444 35.5598 91.011H32.6478C32.4024 90.3284 31.9278 89.987 31.2238 89.987C30.7224 89.987 30.3224 90.1844 30.0238 90.579C29.7251 90.963 29.5758 91.5177 29.5758 92.243C29.5758 92.9684 29.7251 93.5284 30.0238 93.923C30.3224 94.307 30.7224 94.499 31.2238 94.499C31.9278 94.499 32.4024 94.1577 32.6478 93.475H35.5598C35.3251 94.5204 34.8291 95.3417 34.0718 95.939C33.3144 96.5364 32.3811 96.835 31.2718 96.835C30.3971 96.835 29.6184 96.6484 28.9358 96.275C28.2638 95.9017 27.7358 95.3684 27.3518 94.675C26.9784 93.9817 26.7918 93.171 26.7918 92.243ZM39.7593 89.267C40.0793 88.7764 40.4793 88.3924 40.9593 88.115C41.4393 87.827 41.9726 87.683 42.5593 87.683V90.579H41.8073C41.1246 90.579 40.6126 90.7284 40.2713 91.027C39.9299 91.315 39.7593 91.827 39.7593 92.563V96.707H37.0233V87.779H39.7593V89.267ZM52.683 87.779V96.707H49.947V95.491C49.6697 95.8857 49.291 96.2057 48.811 96.451C48.3417 96.6857 47.819 96.803 47.243 96.803C46.5603 96.803 45.9577 96.6537 45.435 96.355C44.9123 96.0457 44.507 95.603 44.219 95.027C43.931 94.451 43.787 93.7737 43.787 92.995V87.779H46.507V92.627C46.507 93.2244 46.6617 93.6884 46.971 94.019C47.2803 94.3497 47.6963 94.515 48.219 94.515C48.7523 94.515 49.1737 94.3497 49.483 94.019C49.7923 93.6884 49.947 93.2244 49.947 92.627V87.779H52.683ZM66.0403 87.683C67.1496 87.683 68.0296 88.019 68.6803 88.691C69.3416 89.363 69.6723 90.2964 69.6723 91.491V96.707H66.9523V91.859C66.9523 91.283 66.7976 90.8404 66.4883 90.531C66.1896 90.211 65.7736 90.051 65.2403 90.051C64.7069 90.051 64.2856 90.211 63.9763 90.531C63.6776 90.8404 63.5283 91.283 63.5283 91.859V96.707H60.8083V91.859C60.8083 91.283 60.6536 90.8404 60.3443 90.531C60.0456 90.211 59.6296 90.051 59.0963 90.051C58.5629 90.051 58.1416 90.211 57.8323 90.531C57.5336 90.8404 57.3843 91.283 57.3843 91.859V96.707H54.6483V87.779H57.3843V88.899C57.6616 88.5257 58.0243 88.2324 58.4723 88.019C58.9203 87.795 59.4269 87.683 59.9923 87.683C60.6643 87.683 61.2616 87.827 61.7843 88.115C62.3176 88.403 62.7336 88.8137 63.0323 89.347C63.3416 88.8564 63.7629 88.4564 64.2963 88.147C64.8296 87.8377 65.4109 87.683 66.0403 87.683Z" fill="white"/>
</svg>
